<svg width="8" height="10" viewBox="0 0 8 10" fill="none" xmlns="http://www.w3.org/2000/svg">
<path d="M6.66667 7.06827C6.32889 7.06827 6.02667 7.21888 5.79556 7.45482L2.62667 5.37149C2.64889 5.25602 2.66667 5.14056 2.66667 5.02008C2.66667 4.8996 2.64889 4.78414 2.62667 4.66867L5.76 2.60542C6 2.85643 6.31556 3.01205 6.66667 3.01205C7.40444 3.01205 8 2.33936 8 1.50602C8 0.672691 7.40444 0 6.66667 0C5.92889 0 5.33333 0.672691 5.33333 1.50602C5.33333 1.62651 5.35111 1.74197 5.37333 1.85743L2.24 3.92068C2 3.66968 1.68444 3.51406 1.33333 3.51406C0.595556 3.51406 0 4.18675 0 5.02008C0 5.85341 0.595556 6.5261 1.33333 6.5261C1.68444 6.5261 2 6.37048 2.24 6.11948L5.40444 8.20783C5.38222 8.31325 5.36889 8.42369 5.36889 8.53414C5.36889 9.34237 5.95111 10 6.66667 10C7.38222 10 7.96444 9.34237 7.96444 8.53414C7.96444 7.7259 7.38222 7.06827 6.66667 7.06827Z" fill="white"/>
</svg>
